<svg width="34" height="37" viewBox="0 0 34 37" fill="none" xmlns="http://www.w3.org/2000/svg">
<path d="M29.449 14.2285C29.5488 14.2861 29.5987 14.3149 29.6326 14.3364C30.818 15.0882 30.818 16.8178 29.6326 17.5696C29.5987 17.5911 29.5488 17.6199 29.449 17.6775L11.4778 28.046C11.378 28.1035 11.3282 28.1323 11.2927 28.1509C10.0491 28.8005 8.5523 27.936 8.49356 26.5342C8.49188 26.4942 8.49188 26.4366 8.49188 26.3215V5.5845C8.49188 5.46938 8.49188 5.41182 8.49356 5.37176C8.5523 3.96999 10.0491 3.1055 11.2927 3.75514C11.3282 3.77371 11.378 3.80247 11.4778 3.86L29.449 14.2285Z" fill="#623CEA"/>
<path d="M29.5792 18.3879C30.8811 19.0797 30.9456 20.9215 29.6952 21.7022L11.8725 32.8308C10.6228 33.6111 8.99671 32.7461 8.94518 31.2736L8.21069 10.2843C8.15916 8.81175 9.72078 7.83569 11.022 8.52712L29.5792 18.3879Z" fill="#623CEA" fill-opacity="0.49"/>
</svg>
